Coordinates
version=1
nRows=8
nColumns=63
inDegrees=yes

Units are S.I. units (second, meters, Newtons, ...)
If the header above contains a line with 'inDegrees', this indicates whether rotational values are in degrees (yes) or radians (no).

endheader
time	pelvis_tilt	pelvis_list	pelvis_rotation	pelvis_tx	pelvis_ty	pelvis_tz	hip_flexion_r	hip_adduction_r	hip_rotation_r	knee_angle_r	knee_angle_r_beta	ankle_angle_r	subtalar_angle_r	mtp_angle_r	hip_flexion_l	hip_adduction_l	hip_rotation_l	knee_angle_l	knee_angle_l_beta	ankle_angle_l	subtalar_angle_l	mtp_angle_l	L5_S1_Flex_Ext	L5_S1_Lat_Bending	L5_S1_axial_rotation	L4_L5_Flex_Ext	L4_L5_Lat_Bending	L4_L5_axial_rotation	L3_L4_Flex_Ext	L3_L4_Lat_Bending	L3_L4_axial_rotation	L2_L3_Flex_Ext	L2_L3_Lat_Bending	L2_L3_axial_rotation	L1_L2_Flex_Ext	L1_L2_Lat_Bending	L1_L2_axial_rotation	L1_T12_Flex_Ext	L1_T12_Lat_Bending	L1_T12_axial_rotation	Abs_r3	Abs_r2	Abs_r1	Abs_t1	Abs_t2	neck_flexion	neck_bending	neck_rotation	arm_flex_r	arm_add_r	arm_rot_r	elbow_flex_r	pro_sup_r	wrist_flex_r	wrist_dev_r	arm_flex_l	arm_add_l	arm_rot_l	elbow_flex_l	pro_sup_l	wrist_flex_l	wrist_dev_l
      0.03333333	     -1.33479027	     -0.38147586	    -26.96670814	     -1.74693366	      0.85569016	      0.30067211	    -10.15113207	     -2.12813649	     17.97983443	      7.50142340	      0.13092454	     11.09207535	    -12.51494549	      0.00000000	     24.87947668	    -14.65422848	    -20.25280497	     27.31515111	      0.47673932	      2.34651891	    -18.88915787	      0.00000000	     -0.03590964	     -0.24941693	      5.11977581	     -0.06668780	     -0.33172452	      5.43976180	     -0.05899595	     -0.60643233	      5.43976180	     -0.04104113	     -0.60643233	      4.47980383	     -0.03334570	     -0.50861101	      4.15981784	     -0.02051877	     -0.38634683	      3.83983186	     -0.25649900	     -2.82145425	     28.47465712	      0.00000000	      0.00000000	     -0.00000000	      0.00000000	      0.00000000	     -6.78505494	     -5.96116898	     11.95224224	     25.68709352	     25.49185626	      0.00000000	      5.91646148	    -12.02137232	      8.41420449	    -53.43970137	     44.14431450	     24.15480217	      0.00000000	      5.91646148
      0.06666667	     -1.33664109	     -0.38751142	    -27.04954741	     -1.74699559	      0.85568296	      0.30073961	    -10.12588457	     -2.12244833	     18.17471368	      7.53406734	      0.13149428	     11.06451766	    -12.69916372	      0.00000000	     24.85317177	    -14.69744759	    -20.34787378	     27.31520664	      0.47674029	      2.36757333	    -18.88184016	      0.00000000	     -0.03583421	     -0.24816680	      5.13748267	     -0.06654772	     -0.33006185	      5.45857533	     -0.05887203	     -0.60339277	      5.45857533	     -0.04095492	     -0.60339277	      4.49529733	     -0.03327565	     -0.50606175	      4.17420467	     -0.02047567	     -0.38441038	      3.85311200	     -0.25596021	     -2.80731251	     28.57313735	      0.00000000	      0.00000000	     -0.00000000	      0.00000000	      0.00000000	     -6.82309909	     -5.91779138	     11.47756478	     25.71735128	     26.49196942	      0.00000000	      5.63359632	    -12.01917148	      8.40256487	    -53.52431312	     44.07289894	     26.07564614	      0.00000000	      5.63359632
      0.10000000	     -1.33757932	     -0.37922574	    -27.03983136	     -1.74699183	      0.85567425	      0.30073338	    -10.12343791	     -2.12753093	     18.23448277	      7.53794775	      0.13156201	     11.06179887	    -12.76284307	      0.00000000	     24.85580755	    -14.68541881	    -20.33592085	     27.30913491	      0.47663432	      2.36401925	    -18.88924100	      0.00000000	     -0.03577577	     -0.24972973	      5.13414799	     -0.06643919	     -0.33214055	      5.45503224	     -0.05877602	     -0.60719287	      5.45503224	     -0.04088813	     -0.60719287	      4.49237949	     -0.03322138	     -0.50924887	      4.17149524	     -0.02044228	     -0.38683136	      3.85061099	     -0.25554276	     -2.82499269	     28.55459087	      0.00000000	      0.00000000	     -0.00000000	      0.00000000	      0.00000000	     -6.80472616	     -5.94480974	     11.65033687	     25.69250284	     26.78639730	      0.00000000	      5.42338138	    -12.00270818	      8.42170208	    -53.70251021	     44.05851260	     26.97023667	      0.00000000	      5.42338138
      0.13333333	     -1.32199105	     -0.35472365	    -27.15236784	     -1.74703209	      0.85570930	      0.30084363	    -10.08740303	     -2.18802625	     18.15113381	      7.58088016	      0.13231132	     11.16299863	    -12.44880575	      0.00000000	     24.78702031	    -14.69874043	    -20.49322382	     27.25991336	      0.47577524	      2.35668980	    -18.87800556	      0.00000000	     -0.03635277	     -0.25273419	      5.15548001	     -0.06751072	     -0.33613647	      5.47769751	     -0.05972396	     -0.61449791	      5.47769751	     -0.04154758	     -0.61449791	      4.51104500	     -0.03375718	     -0.51537556	      4.18882750	     -0.02077197	     -0.39148526	      3.86661000	     -0.25966418	     -2.85897971	     28.67323315	      0.00000000	      0.00000000	     -0.00000000	      0.00000000	      0.00000000	     -6.81554252	     -5.91636706	     11.43227949	     25.69379851	     27.66878257	      0.00000000	      5.31480707	    -11.97837525	      8.43511199	    -53.88793351	     44.04195809	     28.03527857	      0.00000000	      5.31480707
      0.16666667	     -1.33539844	     -0.39358459	    -26.99060293	     -1.74694695	      0.85568174	      0.30068322	    -10.14863723	     -2.11880616	     18.05434208	      7.51167962	      0.13110354	     11.08846877	    -12.56602663	      0.00000000	     24.87226246	    -14.67710530	    -20.26835123	     27.32545265	      0.47691912	      2.35945692	    -18.88722622	      0.00000000	     -0.03628217	     -0.24800812	      5.12599343	     -0.06737961	     -0.32985079	      5.44636802	     -0.05960797	     -0.60300693	      5.44636802	     -0.04146689	     -0.60300693	      4.48524425	     -0.03369162	     -0.50573815	      4.16486966	     -0.02073163	     -0.38416457	      3.84449507	     -0.25915988	     -2.80551741	     28.50923768	      0.00000000	      0.00000000	     -0.00000000	      0.00000000	      0.00000000	     -6.83095727	     -5.90211676	     11.22800941	     25.70196040	     27.86295520	      0.00000000	      5.28581039	    -11.99354598	      8.43678919	    -53.84862508	     44.03732612	     28.28367553	      0.00000000	      5.28581039
      0.20000000	     -1.33163443	     -0.36979181	    -27.04972458	     -1.74698570	      0.85568850	      0.30075487	    -10.11859209	     -2.14436160	     18.16586544	      7.54464061	      0.13167882	     11.08158169	    -12.66125127	      0.00000000	     24.84505138	    -14.67941718	    -20.36028066	     27.29929349	      0.47646255	      2.35651695	    -18.88056049	      0.00000000	     -0.03574560	     -0.25076313	      5.13613781	     -0.06638315	     -0.33351496	      5.45714643	     -0.05872645	     -0.60970548	      5.45714643	     -0.04085365	     -0.60970548	      4.49412059	     -0.03319336	     -0.51135618	      4.17311197	     -0.02042504	     -0.38843209	      3.85210336	     -0.25532725	     -2.83668269	     28.56565768	      0.00000000	      0.00000000	     -0.00000000	      0.00000000	      0.00000000	     -6.81314710	     -5.91364028	     11.36079850	     25.67272748	     28.12735426	      0.00000000	      5.18895959	    -12.00485512	      8.41693556	    -53.83289904	     44.02794557	     28.75463054	      0.00000000	      5.18895959
      0.23333333	     -1.33775439	     -0.40173490	    -27.00907367	     -1.74694876	      0.85568681	      0.30067739	    -10.13133562	     -2.10318706	     18.17497895	      7.55339455	      0.13183160	     11.00387030	    -12.80991873	      0.00000000	     24.85533659	    -14.68727276	    -20.29361620	     27.30341671	      0.47653452	      2.37423261	    -18.88242317	      0.00000000	     -0.03621024	     -0.24657021	      5.12803908	     -0.06724603	     -0.32793837	      5.44854153	     -0.05948980	     -0.59951080	      5.44854153	     -0.04138468	     -0.59951080	      4.48703420	     -0.03362483	     -0.50280596	      4.16653176	     -0.02069053	     -0.38193725	      3.84602931	     -0.25864610	     -2.78925148	     28.52061498	      0.00000000	      0.00000000	     -0.00000000	      0.00000000	      0.00000000	     -6.82678834	     -5.90375502	     11.18032867	     25.69838437	     28.61342963	      0.00000000	      5.16391404	    -12.00439421	      8.45887585	    -53.95701237	     44.05595558	     29.29464723	      0.00000000	      5.16391404
      0.26666667	     -1.34232861	     -0.42421836	    -26.96932413	     -1.74690796	      0.85567109	      0.30065394	    -10.18875019	     -2.09235187	     18.04448165	      7.45365501	      0.13009082	     11.06684661	    -12.55055649	      0.00000000	     24.89565365	    -14.70140675	    -20.19625732	     27.36850635	      0.47767055	      2.37984954	    -18.89142435	      0.00000000	     -0.03606428	     -0.24399702	      5.12206314	     -0.06697498	     -0.32451604	      5.44219209	     -0.05925001	     -0.59325437	      5.44219209	     -0.04121787	     -0.59325437	      4.48180525	     -0.03348929	     -0.49755873	      4.16167630	     -0.02060713	     -0.37795139	      3.84154736	     -0.25760356	     -2.76014314	     28.48737857	      0.00000000	      0.00000000	     -0.00000000	      0.00000000	      0.00000000	     -6.84686255	     -5.91611806	     11.06948682	     25.71432972	     29.11538522	      0.00000000	      5.13822385	    -12.00527802	      8.46981860	    -54.01221889	     44.06257357	     29.84992914	      0.00000000	      5.13822385
